<svg width="180" height="44" viewBox="0 0 180 44" fill="none" xmlns="http://www.w3.org/2000/svg">
<path opacity="0.2" d="M35.4667 23.4248C33.9422 22.5431 31.2626 22.1564 28.6948 22C31.2626 21.8436 33.9422 21.4569 35.4667 20.5752C36.1016 20.2189 36.6594 19.7402 37.1079 19.1668C37.5563 18.5934 37.8865 17.9366 38.0792 17.2346C38.2719 16.5326 38.3234 15.7993 38.2306 15.0773C38.1377 14.3552 37.9025 13.6588 37.5385 13.0284C37.1745 12.3979 36.6889 11.846 36.11 11.4047C35.531 10.9633 34.8703 10.6413 34.1659 10.4572C33.4616 10.2732 32.7277 10.2308 32.0069 10.3325C31.286 10.4343 30.5926 10.6781 29.9667 11.0498C28.4422 11.9298 26.7681 14.0542 25.3484 16.2061C26.4982 13.8995 27.5003 11.3867 27.5003 9.625C27.5003 8.16631 26.9208 6.76736 25.8894 5.73591C24.8579 4.70446 23.459 4.125 22.0003 4.125C20.5416 4.125 19.1426 4.70446 18.1112 5.73591C17.0797 6.76736 16.5003 8.16631 16.5003 9.625C16.5003 11.3867 17.5023 13.8995 18.6521 16.2009C17.2325 14.0542 15.5584 11.9298 14.0339 11.0447C13.408 10.6729 12.7145 10.4291 11.9937 10.3274C11.2728 10.2256 10.539 10.268 9.83463 10.4521C9.1303 10.6361 8.46951 10.9582 7.89058 11.3995C7.31165 11.8409 6.8261 12.3928 6.46208 13.0232C6.09806 13.6536 5.86282 14.3501 5.76999 15.0721C5.67717 15.7941 5.72861 16.5274 5.92133 17.2294C6.11404 17.9314 6.44421 18.5882 6.89268 19.1616C7.34114 19.7351 7.89899 20.2138 8.53387 20.57C10.0584 21.4517 12.7379 21.8384 15.3057 21.9948C12.7379 22.1513 10.0584 22.538 8.53387 23.4197C7.89899 23.7759 7.34114 24.2546 6.89268 24.828C6.44421 25.4015 6.11404 26.0582 5.92133 26.7603C5.72861 27.4623 5.67717 28.1955 5.76999 28.9176C5.86282 29.6396 6.09806 30.3361 6.46208 30.9665C6.8261 31.5969 7.31165 32.1488 7.89058 32.5902C8.46951 33.0315 9.1303 33.3536 9.83463 33.5376C10.539 33.7217 11.2728 33.764 11.9937 33.6623C12.7145 33.5606 13.408 33.3168 14.0339 32.945C15.5584 32.065 17.2325 29.9406 18.6521 27.7887C17.5023 30.1005 16.5003 32.6133 16.5003 34.375C16.5003 35.8337 17.0797 37.2326 18.1112 38.2641C19.1426 39.2955 20.5416 39.875 22.0003 39.875C23.459 39.875 24.8579 39.2955 25.8894 38.2641C26.9208 37.2326 27.5003 35.8337 27.5003 34.375C27.5003 32.6133 26.4982 30.1005 25.3484 27.7991C26.7681 29.9458 28.4422 32.0702 29.9667 32.9553C30.5926 33.3271 31.286 33.5709 32.0069 33.6726C32.7277 33.7744 33.4616 33.732 34.1659 33.5479C34.8703 33.3639 35.531 33.0418 36.11 32.6005C36.6889 32.1591 37.1745 31.6072 37.5385 30.9768C37.9025 30.3464 38.1377 29.6499 38.2306 28.9279C38.3234 28.2059 38.2719 27.4726 38.0792 26.7706C37.8865 26.0686 37.5563 25.4118 37.1079 24.8384C36.6594 24.2649 36.1016 23.7862 35.4667 23.43V23.4248ZM26.7629 24.75C26.0956 25.9055 25.0309 26.7789 23.7673 27.2076C22.5037 27.6363 21.1273 27.591 19.8947 27.0801C18.662 26.5693 17.657 25.6278 17.0671 24.4309C16.4771 23.2341 16.3424 21.8636 16.6879 20.5748C17.0335 19.286 17.8358 18.1667 18.9454 17.4256C20.055 16.6844 21.3961 16.372 22.719 16.5463C24.0419 16.7207 25.2563 17.3701 26.136 18.3734C27.0156 19.3767 27.5005 20.6657 27.5003 22C27.5022 22.9658 27.2478 23.9148 26.7629 24.75Z" fill="#2D4595"/>
<path d="M36.1539 22.2338C36.0147 22.153 35.8618 22.0757 35.7036 22.0001C35.8618 21.9244 36.0147 21.8471 36.1539 21.7663C36.9421 21.3182 37.6339 20.7186 38.1894 20.002C38.7449 19.2854 39.1532 18.4661 39.3908 17.5911C39.6283 16.7161 39.6905 15.8027 39.5736 14.9036C39.4567 14.0045 39.1632 13.1374 38.7098 12.3522C38.2565 11.567 37.6523 10.8792 36.9321 10.3285C36.2118 9.77771 35.3898 9.37487 34.5132 9.14312C33.6366 8.91137 32.7229 8.8553 31.8246 8.97812C30.9263 9.10095 30.0611 9.40025 29.2789 9.8588C29.1397 9.93958 28.9954 10.0307 28.8527 10.1321C28.8664 9.96021 28.875 9.78833 28.875 9.61646C28.875 7.79309 28.1507 6.04441 26.8614 4.7551C25.5721 3.46578 23.8234 2.74146 22 2.74146C20.1767 2.74146 18.428 3.46578 17.1387 4.7551C15.8494 6.04441 15.125 7.79309 15.125 9.61646C15.125 9.77802 15.125 9.94989 15.1474 10.1321C15.0047 10.0341 14.8604 9.93958 14.7211 9.8588C13.939 9.40025 13.0738 9.10095 12.1755 8.97812C11.2772 8.8553 10.3634 8.91137 9.48688 9.14312C8.61032 9.37487 7.78826 9.77771 7.06803 10.3285C6.34779 10.8792 5.74361 11.567 5.29026 12.3522C4.83691 13.1374 4.54336 14.0045 4.42649 14.9036C4.30962 15.8027 4.37176 16.7161 4.60932 17.5911C4.84687 18.4661 5.25516 19.2854 5.81067 20.002C6.36618 20.7186 7.05795 21.3182 7.84613 21.7663C7.98535 21.8471 8.13832 21.9244 8.29645 22.0001C8.13832 22.0757 7.98535 22.153 7.84613 22.2338C7.05795 22.6819 6.36618 23.2815 5.81067 23.9981C5.25516 24.7147 4.84687 25.534 4.60932 26.409C4.37176 27.284 4.30962 28.1974 4.42649 29.0965C4.54336 29.9956 4.83691 30.8627 5.29026 31.6479C5.74361 32.4331 6.34779 33.1209 7.06803 33.6716C7.78826 34.2224 8.61032 34.6252 9.48688 34.857C10.3634 35.0887 11.2772 35.1448 12.1755 35.022C13.0738 34.8992 13.939 34.5998 14.7211 34.1413C14.8604 34.0605 15.0047 33.9694 15.1474 33.868C15.1336 34.0399 15.125 34.2118 15.125 34.3751C15.125 36.1984 15.8494 37.9471 17.1387 39.2364C18.428 40.5257 20.1767 41.2501 22 41.2501C23.8234 41.2501 25.5721 40.5257 26.8614 39.2364C28.1507 37.9471 28.875 36.1984 28.875 34.3751C28.875 34.2135 28.8664 34.0416 28.8527 33.868C28.9954 33.966 29.1397 34.0605 29.2789 34.1413C30.3204 34.7445 31.5026 35.0623 32.7061 35.0626C33.3109 35.0618 33.913 34.9821 34.4971 34.8254C35.8105 34.4733 36.99 33.7397 37.8865 32.7173C38.783 31.6949 39.3562 30.4296 39.5335 29.0814C39.7109 27.7333 39.4844 26.3628 38.8829 25.1433C38.2813 23.9238 37.3316 22.9101 36.1539 22.2304V22.2338ZM17.875 22.0001C17.875 21.1842 18.117 20.3867 18.5702 19.7083C19.0235 19.03 19.6677 18.5013 20.4215 18.189C21.1752 17.8768 22.0046 17.7951 22.8048 17.9543C23.605 18.1135 24.34 18.5063 24.9169 19.0832C25.4937 19.6601 25.8866 20.3951 26.0458 21.1953C26.2049 21.9955 26.1233 22.8249 25.811 23.5786C25.4988 24.3324 24.9701 24.9766 24.2918 25.4299C23.6134 25.8831 22.8159 26.1251 22 26.1251C20.906 26.1251 19.8568 25.6905 19.0832 24.9169C18.3096 24.1433 17.875 23.0941 17.875 22.0001ZM30.6539 12.2393C31.1231 11.9684 31.641 11.7926 32.1781 11.7219C32.7151 11.6512 33.2609 11.687 33.7841 11.8272C34.3074 11.9674 34.7979 12.2093 35.2277 12.5391C35.6574 12.8689 36.018 13.2801 36.2889 13.7492C36.5597 14.2183 36.7355 14.7362 36.8062 15.2733C36.8769 15.8104 36.8411 16.3561 36.7009 16.8794C36.5607 17.4026 36.3188 17.8931 35.9891 18.3229C35.6593 18.7527 35.2481 19.1133 34.7789 19.3841C33.7013 20.008 31.5804 20.4377 28.7358 20.6199C28.4357 19.1647 27.6723 17.8459 26.5599 16.861C28.1411 14.4857 29.5763 12.8632 30.6539 12.2393ZM22 5.50005C23.0941 5.50005 24.1433 5.93465 24.9169 6.70823C25.6904 7.48182 26.125 8.53103 26.125 9.62505C26.125 10.8694 25.4375 12.9233 24.1725 15.4791C22.7627 15.0069 21.2374 15.0069 19.8275 15.4791C18.5625 12.9233 17.875 10.8694 17.875 9.62505C17.875 8.53103 18.3096 7.48182 19.0832 6.70823C19.8568 5.93465 20.906 5.50005 22 5.50005ZM7.71035 13.7501C7.98113 13.2807 8.34171 12.8693 8.77151 12.5394C9.20131 12.2095 9.69191 11.9674 10.2153 11.8271C10.7386 11.6868 11.2845 11.651 11.8217 11.7217C12.3589 11.7925 12.8769 11.9683 13.3461 12.2393C14.4238 12.8632 15.8589 14.4857 17.4402 16.861C16.3268 17.8473 15.5633 19.168 15.2643 20.6251C12.4197 20.4429 10.2988 20.0132 9.22113 19.391C8.75112 19.1202 8.33913 18.7594 8.00874 18.3292C7.67836 17.899 7.43606 17.4078 7.29573 16.8839C7.1554 16.3599 7.11979 15.8134 7.19094 15.2757C7.26208 14.7379 7.43859 14.2195 7.71035 13.7501ZM13.3461 31.7608C12.3987 32.3078 11.2727 32.4561 10.216 32.1729C9.15921 31.8897 8.25822 31.1984 7.71121 30.2509C7.1642 29.3034 7.01598 28.1775 7.29914 27.1207C7.58231 26.064 8.27367 25.163 9.22113 24.616C10.2988 23.9921 12.4197 23.5624 15.2643 23.3802C15.5643 24.8354 16.3278 26.1542 17.4402 27.1391C15.8589 29.5144 14.4238 31.1369 13.3461 31.7608ZM22 38.5001C20.906 38.5001 19.8568 38.0655 19.0832 37.2919C18.3096 36.5183 17.875 35.4691 17.875 34.3751C17.875 33.1307 18.5625 31.0768 19.8275 28.521C21.2374 28.9932 22.7627 28.9932 24.1725 28.521C25.4375 31.0768 26.125 33.1307 26.125 34.3751C26.125 35.4691 25.6904 36.5183 24.9169 37.2919C24.1433 38.0655 23.0941 38.5001 22 38.5001ZM36.2897 30.2501C36.019 30.7194 35.6584 31.1308 35.2286 31.4607C34.7988 31.7906 34.3082 32.0327 33.7848 32.173C33.2615 32.3133 32.7156 32.3491 32.1784 32.2784C31.6412 32.2077 31.1232 32.0318 30.6539 31.7608C29.5763 31.1369 28.1411 29.5144 26.5599 27.1391C27.6733 26.1528 28.4368 24.8321 28.7358 23.3751C31.5804 23.5572 33.7013 23.9869 34.7789 24.6091C35.249 24.8799 35.661 25.2407 35.9913 25.6709C36.3217 26.1011 36.564 26.5923 36.7043 27.1162C36.8447 27.6402 36.8803 28.1867 36.8091 28.7244C36.738 29.2622 36.5615 29.7806 36.2897 30.2501Z" fill="#2D4595"/>
<path opacity="0.2" d="M103.467 23.4248C101.942 22.5431 99.2626 22.1564 96.6948 22C99.2626 21.8436 101.942 21.4569 103.467 20.5752C104.102 20.2189 104.659 19.7402 105.108 19.1668C105.556 18.5934 105.887 17.9366 106.079 17.2346C106.272 16.5326 106.323 15.7993 106.231 15.0773C106.138 14.3552 105.902 13.6588 105.538 13.0284C105.174 12.3979 104.689 11.846 104.11 11.4047C103.531 10.9633 102.87 10.6413 102.166 10.4572C101.462 10.2732 100.728 10.2308 100.007 10.3325C99.286 10.4343 98.5926 10.6781 97.9667 11.0498C96.4422 11.9298 94.7681 14.0542 93.3484 16.2061C94.4982 13.8995 95.5003 11.3867 95.5003 9.625C95.5003 8.16631 94.9208 6.76736 93.8894 5.73591C92.8579 4.70446 91.459 4.125 90.0003 4.125C88.5416 4.125 87.1426 4.70446 86.1112 5.73591C85.0797 6.76736 84.5003 8.16631 84.5003 9.625C84.5003 11.3867 85.5023 13.8995 86.6521 16.2009C85.2325 14.0542 83.5584 11.9298 82.0339 11.0447C81.408 10.6729 80.7145 10.4291 79.9937 10.3274C79.2728 10.2256 78.539 10.268 77.8346 10.4521C77.1303 10.6361 76.4695 10.9582 75.8906 11.3995C75.3116 11.8409 74.8261 12.3928 74.4621 13.0232C74.0981 13.6536 73.8628 14.3501 73.77 15.0721C73.6772 15.7941 73.7286 16.5274 73.9213 17.2294C74.114 17.9314 74.4442 18.5882 74.8927 19.1616C75.3411 19.7351 75.899 20.2138 76.5339 20.57C78.0584 21.4517 80.7379 21.8384 83.3057 21.9948C80.7379 22.1513 78.0584 22.538 76.5339 23.4197C75.899 23.7759 75.3411 24.2546 74.8927 24.828C74.4442 25.4015 74.114 26.0582 73.9213 26.7603C73.7286 27.4623 73.6772 28.1955 73.77 28.9176C73.8628 29.6396 74.0981 30.3361 74.4621 30.9665C74.8261 31.5969 75.3116 32.1488 75.8906 32.5902C76.4695 33.0315 77.1303 33.3536 77.8346 33.5376C78.539 33.7217 79.2728 33.764 79.9937 33.6623C80.7145 33.5606 81.408 33.3168 82.0339 32.945C83.5584 32.065 85.2325 29.9406 86.6521 27.7887C85.5023 30.1005 84.5003 32.6133 84.5003 34.375C84.5003 35.8337 85.0797 37.2326 86.1112 38.2641C87.1426 39.2955 88.5416 39.875 90.0003 39.875C91.459 39.875 92.8579 39.2955 93.8894 38.2641C94.9208 37.2326 95.5003 35.8337 95.5003 34.375C95.5003 32.6133 94.4982 30.1005 93.3484 27.7991C94.7681 29.9458 96.4422 32.0702 97.9667 32.9553C98.5926 33.3271 99.286 33.5709 100.007 33.6726C100.728 33.7744 101.462 33.732 102.166 33.5479C102.87 33.3639 103.531 33.0418 104.11 32.6005C104.689 32.1591 105.174 31.6072 105.538 30.9768C105.902 30.3464 106.138 29.6499 106.231 28.9279C106.323 28.2059 106.272 27.4726 106.079 26.7706C105.887 26.0686 105.556 25.4118 105.108 24.8384C104.659 24.2649 104.102 23.7862 103.467 23.43V23.4248ZM94.7629 24.75C94.0956 25.9055 93.0309 26.7789 91.7673 27.2076C90.5037 27.6363 89.1273 27.591 87.8947 27.0801C86.662 26.5693 85.657 25.6278 85.0671 24.4309C84.4771 23.2341 84.3424 21.8636 84.6879 20.5748C85.0335 19.286 85.8358 18.1667 86.9454 17.4256C88.055 16.6844 89.3961 16.372 90.719 16.5463C92.0419 16.7207 93.2563 17.3701 94.136 18.3734C95.0156 19.3767 95.5005 20.6657 95.5003 22C95.5022 22.9658 95.2478 23.9148 94.7629 24.75Z" fill="#2D4595"/>
<path d="M104.154 22.2338C104.015 22.153 103.862 22.0757 103.704 22.0001C103.862 21.9244 104.015 21.8471 104.154 21.7663C104.942 21.3182 105.634 20.7186 106.189 20.002C106.745 19.2854 107.153 18.4661 107.391 17.5911C107.628 16.7161 107.69 15.8027 107.574 14.9036C107.457 14.0045 107.163 13.1374 106.71 12.3522C106.256 11.567 105.652 10.8792 104.932 10.3285C104.212 9.77771 103.39 9.37487 102.513 9.14312C101.637 8.91137 100.723 8.8553 99.8246 8.97812C98.9263 9.10095 98.0611 9.40025 97.2789 9.8588C97.1397 9.93958 96.9954 10.0307 96.8527 10.1321C96.8664 9.96021 96.875 9.78833 96.875 9.61646C96.875 7.79309 96.1507 6.04441 94.8614 4.7551C93.5721 3.46578 91.8234 2.74146 90 2.74146C88.1767 2.74146 86.428 3.46578 85.1387 4.7551C83.8494 6.04441 83.125 7.79309 83.125 9.61646C83.125 9.77802 83.125 9.94989 83.1474 10.1321C83.0047 10.0341 82.8604 9.93958 82.7211 9.8588C81.939 9.40025 81.0738 9.10095 80.1755 8.97812C79.2772 8.8553 78.3634 8.91137 77.4869 9.14312C76.6103 9.37487 75.7883 9.77771 75.068 10.3285C74.3478 10.8792 73.7436 11.567 73.2903 12.3522C72.8369 13.1374 72.5434 14.0045 72.4265 14.9036C72.3096 15.8027 72.3718 16.7161 72.6093 17.5911C72.8469 18.4661 73.2552 19.2854 73.8107 20.002C74.3662 20.7186 75.0579 21.3182 75.8461 21.7663C75.9854 21.8471 76.1383 21.9244 76.2964 22.0001C76.1383 22.0757 75.9854 22.153 75.8461 22.2338C75.0579 22.6819 74.3662 23.2815 73.8107 23.9981C73.2552 24.7147 72.8469 25.534 72.6093 26.409C72.3718 27.284 72.3096 28.1974 72.4265 29.0965C72.5434 29.9956 72.8369 30.8627 73.2903 31.6479C73.7436 32.4331 74.3478 33.1209 75.068 33.6716C75.7883 34.2224 76.6103 34.6252 77.4869 34.857C78.3634 35.0887 79.2772 35.1448 80.1755 35.022C81.0738 34.8992 81.939 34.5998 82.7211 34.1413C82.8604 34.0605 83.0047 33.9694 83.1474 33.868C83.1336 34.0399 83.125 34.2118 83.125 34.3751C83.125 36.1984 83.8494 37.9471 85.1387 39.2364C86.428 40.5257 88.1767 41.2501 90 41.2501C91.8234 41.2501 93.5721 40.5257 94.8614 39.2364C96.1507 37.9471 96.875 36.1984 96.875 34.3751C96.875 34.2135 96.8664 34.0416 96.8527 33.868C96.9954 33.966 97.1397 34.0605 97.2789 34.1413C98.3204 34.7445 99.5026 35.0623 100.706 35.0626C101.311 35.0618 101.913 34.9821 102.497 34.8254C103.811 34.4733 104.99 33.7397 105.887 32.7173C106.783 31.6949 107.356 30.4296 107.534 29.0814C107.711 27.7333 107.484 26.3628 106.883 25.1433C106.281 23.9238 105.332 22.9101 104.154 22.2304V22.2338ZM85.875 22.0001C85.875 21.1842 86.117 20.3867 86.5702 19.7083C87.0235 19.03 87.6677 18.5013 88.4215 18.189C89.1752 17.8768 90.0046 17.7951 90.8048 17.9543C91.605 18.1135 92.34 18.5063 92.9169 19.0832C93.4937 19.6601 93.8866 20.3951 94.0458 21.1953C94.2049 21.9955 94.1233 22.8249 93.811 23.5786C93.4988 24.3324 92.9701 24.9766 92.2918 25.4299C91.6134 25.8831 90.8159 26.1251 90 26.1251C88.906 26.1251 87.8568 25.6905 87.0832 24.9169C86.3096 24.1433 85.875 23.0941 85.875 22.0001ZM98.6539 12.2393C99.1231 11.9684 99.641 11.7926 100.178 11.7219C100.715 11.6512 101.261 11.687 101.784 11.8272C102.307 11.9674 102.798 12.2093 103.228 12.5391C103.657 12.8689 104.018 13.2801 104.289 13.7492C104.56 14.2183 104.736 14.7362 104.806 15.2733C104.877 15.8104 104.841 16.3561 104.701 16.8794C104.561 17.4026 104.319 17.8931 103.989 18.3229C103.659 18.7527 103.248 19.1133 102.779 19.3841C101.701 20.008 99.5804 20.4377 96.7358 20.6199C96.4357 19.1647 95.6723 17.8459 94.5599 16.861C96.1411 14.4857 97.5763 12.8632 98.6539 12.2393ZM90 5.50005C91.0941 5.50005 92.1433 5.93465 92.9169 6.70823C93.6904 7.48182 94.125 8.53103 94.125 9.62505C94.125 10.8694 93.4375 12.9233 92.1725 15.4791C90.7627 15.0069 89.2374 15.0069 87.8275 15.4791C86.5625 12.9233 85.875 10.8694 85.875 9.62505C85.875 8.53103 86.3096 7.48182 87.0832 6.70823C87.8568 5.93465 88.906 5.50005 90 5.50005ZM75.7104 13.7501C75.9811 13.2807 76.3417 12.8693 76.7715 12.5394C77.2013 12.2095 77.6919 11.9674 78.2153 11.8271C78.7386 11.6868 79.2845 11.651 79.8217 11.7217C80.3589 11.7925 80.8769 11.9683 81.3461 12.2393C82.4238 12.8632 83.8589 14.4857 85.4402 16.861C84.3268 17.8473 83.5633 19.168 83.2643 20.6251C80.4197 20.4429 78.2988 20.0132 77.2211 19.391C76.7511 19.1202 76.3391 18.7594 76.0087 18.3292C75.6784 17.899 75.4361 17.4078 75.2957 16.8839C75.1554 16.3599 75.1198 15.8134 75.1909 15.2757C75.2621 14.7379 75.4386 14.2195 75.7104 13.7501ZM81.3461 31.7608C80.3987 32.3078 79.2727 32.4561 78.216 32.1729C77.1592 31.8897 76.2582 31.1984 75.7112 30.2509C75.1642 29.3034 75.016 28.1775 75.2991 27.1207C75.5823 26.064 76.2737 25.163 77.2211 24.616C78.2988 23.9921 80.4197 23.5624 83.2643 23.3802C83.5643 24.8354 84.3278 26.1542 85.4402 27.1391C83.8589 29.5144 82.4238 31.1369 81.3461 31.7608ZM90 38.5001C88.906 38.5001 87.8568 38.0655 87.0832 37.2919C86.3096 36.5183 85.875 35.4691 85.875 34.3751C85.875 33.1307 86.5625 31.0768 87.8275 28.521C89.2374 28.9932 90.7627 28.9932 92.1725 28.521C93.4375 31.0768 94.125 33.1307 94.125 34.3751C94.125 35.4691 93.6904 36.5183 92.9169 37.2919C92.1433 38.0655 91.0941 38.5001 90 38.5001ZM104.29 30.2501C104.019 30.7194 103.658 31.1308 103.229 31.4607C102.799 31.7906 102.308 32.0327 101.785 32.173C101.261 32.3133 100.716 32.3491 100.178 32.2784C99.6412 32.2077 99.1232 32.0318 98.6539 31.7608C97.5763 31.1369 96.1411 29.5144 94.5599 27.1391C95.6733 26.1528 96.4368 24.8321 96.7358 23.3751C99.5804 23.5572 101.701 23.9869 102.779 24.6091C103.249 24.8799 103.661 25.2407 103.991 25.6709C104.322 26.1011 104.564 26.5923 104.704 27.1162C104.845 27.6402 104.88 28.1867 104.809 28.7244C104.738 29.2622 104.561 29.7806 104.29 30.2501Z" fill="#2D4595"/>
<path opacity="0.2" d="M171.467 23.4248C169.942 22.5431 167.263 22.1564 164.695 22C167.263 21.8436 169.942 21.4569 171.467 20.5752C172.102 20.2189 172.659 19.7402 173.108 19.1668C173.556 18.5934 173.887 17.9366 174.079 17.2346C174.272 16.5326 174.323 15.7993 174.231 15.0773C174.138 14.3552 173.902 13.6588 173.538 13.0284C173.174 12.3979 172.689 11.846 172.11 11.4047C171.531 10.9633 170.87 10.6413 170.166 10.4572C169.462 10.2732 168.728 10.2308 168.007 10.3325C167.286 10.4343 166.593 10.6781 165.967 11.0498C164.442 11.9298 162.768 14.0542 161.348 16.2061C162.498 13.8995 163.5 11.3867 163.5 9.625C163.5 8.16631 162.921 6.76736 161.889 5.73591C160.858 4.70446 159.459 4.125 158 4.125C156.542 4.125 155.143 4.70446 154.111 5.73591C153.08 6.76736 152.5 8.16631 152.5 9.625C152.5 11.3867 153.502 13.8995 154.652 16.2009C153.232 14.0542 151.558 11.9298 150.034 11.0447C149.408 10.6729 148.715 10.4291 147.994 10.3274C147.273 10.2256 146.539 10.268 145.835 10.4521C145.13 10.6361 144.47 10.9582 143.891 11.3995C143.312 11.8409 142.826 12.3928 142.462 13.0232C142.098 13.6536 141.863 14.3501 141.77 15.0721C141.677 15.7941 141.729 16.5274 141.921 17.2294C142.114 17.9314 142.444 18.5882 142.893 19.1616C143.341 19.7351 143.899 20.2138 144.534 20.57C146.058 21.4517 148.738 21.8384 151.306 21.9948C148.738 22.1513 146.058 22.538 144.534 23.4197C143.899 23.7759 143.341 24.2546 142.893 24.828C142.444 25.4015 142.114 26.0582 141.921 26.7603C141.729 27.4623 141.677 28.1955 141.77 28.9176C141.863 29.6396 142.098 30.3361 142.462 30.9665C142.826 31.5969 143.312 32.1488 143.891 32.5902C144.47 33.0315 145.13 33.3536 145.835 33.5376C146.539 33.7217 147.273 33.764 147.994 33.6623C148.715 33.5606 149.408 33.3168 150.034 32.945C151.558 32.065 153.232 29.9406 154.652 27.7887C153.502 30.1005 152.5 32.6133 152.5 34.375C152.5 35.8337 153.08 37.2326 154.111 38.2641C155.143 39.2955 156.542 39.875 158 39.875C159.459 39.875 160.858 39.2955 161.889 38.2641C162.921 37.2326 163.5 35.8337 163.5 34.375C163.5 32.6133 162.498 30.1005 161.348 27.7991C162.768 29.9458 164.442 32.0702 165.967 32.9553C166.593 33.3271 167.286 33.5709 168.007 33.6726C168.728 33.7744 169.462 33.732 170.166 33.5479C170.87 33.3639 171.531 33.0418 172.11 32.6005C172.689 32.1591 173.174 31.6072 173.538 30.9768C173.902 30.3464 174.138 29.6499 174.231 28.9279C174.323 28.2059 174.272 27.4726 174.079 26.7706C173.887 26.0686 173.556 25.4118 173.108 24.8384C172.659 24.2649 172.102 23.7862 171.467 23.43V23.4248ZM162.763 24.75C162.096 25.9055 161.031 26.7789 159.767 27.2076C158.504 27.6363 157.127 27.591 155.895 27.0801C154.662 26.5693 153.657 25.6278 153.067 24.4309C152.477 23.2341 152.342 21.8636 152.688 20.5748C153.033 19.286 153.836 18.1667 154.945 17.4256C156.055 16.6844 157.396 16.372 158.719 16.5463C160.042 16.7207 161.256 17.3701 162.136 18.3734C163.016 19.3767 163.5 20.6657 163.5 22C163.502 22.9658 163.248 23.9148 162.763 24.75Z" fill="#2D4595"/>
<path d="M172.154 22.2338C172.015 22.153 171.862 22.0757 171.704 22.0001C171.862 21.9244 172.015 21.8471 172.154 21.7663C172.942 21.3182 173.634 20.7186 174.189 20.002C174.745 19.2854 175.153 18.4661 175.391 17.5911C175.628 16.7161 175.69 15.8027 175.574 14.9036C175.457 14.0045 175.163 13.1374 174.71 12.3522C174.256 11.567 173.652 10.8792 172.932 10.3285C172.212 9.77771 171.39 9.37487 170.513 9.14312C169.637 8.91137 168.723 8.8553 167.825 8.97812C166.926 9.10095 166.061 9.40025 165.279 9.8588C165.14 9.93958 164.995 10.0307 164.853 10.1321C164.866 9.96021 164.875 9.78833 164.875 9.61646C164.875 7.79309 164.151 6.04441 162.861 4.7551C161.572 3.46578 159.823 2.74146 158 2.74146C156.177 2.74146 154.428 3.46578 153.139 4.7551C151.849 6.04441 151.125 7.79309 151.125 9.61646C151.125 9.77802 151.125 9.94989 151.147 10.1321C151.005 10.0341 150.86 9.93958 150.721 9.8588C149.939 9.40025 149.074 9.10095 148.175 8.97812C147.277 8.8553 146.363 8.91137 145.487 9.14312C144.61 9.37487 143.788 9.77771 143.068 10.3285C142.348 10.8792 141.744 11.567 141.29 12.3522C140.837 13.1374 140.543 14.0045 140.426 14.9036C140.31 15.8027 140.372 16.7161 140.609 17.5911C140.847 18.4661 141.255 19.2854 141.811 20.002C142.366 20.7186 143.058 21.3182 143.846 21.7663C143.985 21.8471 144.138 21.9244 144.296 22.0001C144.138 22.0757 143.985 22.153 143.846 22.2338C143.058 22.6819 142.366 23.2815 141.811 23.9981C141.255 24.7147 140.847 25.534 140.609 26.409C140.372 27.284 140.31 28.1974 140.426 29.0965C140.543 29.9956 140.837 30.8627 141.29 31.6479C141.744 32.4331 142.348 33.1209 143.068 33.6716C143.788 34.2224 144.61 34.6252 145.487 34.857C146.363 35.0887 147.277 35.1448 148.175 35.022C149.074 34.8992 149.939 34.5998 150.721 34.1413C150.86 34.0605 151.005 33.9694 151.147 33.868C151.134 34.0399 151.125 34.2118 151.125 34.3751C151.125 36.1984 151.849 37.9471 153.139 39.2364C154.428 40.5257 156.177 41.2501 158 41.2501C159.823 41.2501 161.572 40.5257 162.861 39.2364C164.151 37.9471 164.875 36.1984 164.875 34.3751C164.875 34.2135 164.866 34.0416 164.853 33.868C164.995 33.966 165.14 34.0605 165.279 34.1413C166.32 34.7445 167.503 35.0623 168.706 35.0626C169.311 35.0618 169.913 34.9821 170.497 34.8254C171.811 34.4733 172.99 33.7397 173.887 32.7173C174.783 31.6949 175.356 30.4296 175.534 29.0814C175.711 27.7333 175.484 26.3628 174.883 25.1433C174.281 23.9238 173.332 22.9101 172.154 22.2304V22.2338ZM153.875 22.0001C153.875 21.1842 154.117 20.3867 154.57 19.7083C155.023 19.03 155.668 18.5013 156.421 18.189C157.175 17.8768 158.005 17.7951 158.805 17.9543C159.605 18.1135 160.34 18.5063 160.917 19.0832C161.494 19.6601 161.887 20.3951 162.046 21.1953C162.205 21.9955 162.123 22.8249 161.811 23.5786C161.499 24.3324 160.97 24.9766 160.292 25.4299C159.613 25.8831 158.816 26.1251 158 26.1251C156.906 26.1251 155.857 25.6905 155.083 24.9169C154.31 24.1433 153.875 23.0941 153.875 22.0001ZM166.654 12.2393C167.123 11.9684 167.641 11.7926 168.178 11.7219C168.715 11.6512 169.261 11.687 169.784 11.8272C170.307 11.9674 170.798 12.2093 171.228 12.5391C171.657 12.8689 172.018 13.2801 172.289 13.7492C172.56 14.2183 172.736 14.7362 172.806 15.2733C172.877 15.8104 172.841 16.3561 172.701 16.8794C172.561 17.4026 172.319 17.8931 171.989 18.3229C171.659 18.7527 171.248 19.1133 170.779 19.3841C169.701 20.008 167.58 20.4377 164.736 20.6199C164.436 19.1647 163.672 17.8459 162.56 16.861C164.141 14.4857 165.576 12.8632 166.654 12.2393ZM158 5.50005C159.094 5.50005 160.143 5.93465 160.917 6.70823C161.69 7.48182 162.125 8.53103 162.125 9.62505C162.125 10.8694 161.438 12.9233 160.173 15.4791C158.763 15.0069 157.237 15.0069 155.828 15.4791C154.563 12.9233 153.875 10.8694 153.875 9.62505C153.875 8.53103 154.31 7.48182 155.083 6.70823C155.857 5.93465 156.906 5.50005 158 5.50005ZM143.71 13.7501C143.981 13.2807 144.342 12.8693 144.772 12.5394C145.201 12.2095 145.692 11.9674 146.215 11.8271C146.739 11.6868 147.284 11.651 147.822 11.7217C148.359 11.7925 148.877 11.9683 149.346 12.2393C150.424 12.8632 151.859 14.4857 153.44 16.861C152.327 17.8473 151.563 19.168 151.264 20.6251C148.42 20.4429 146.299 20.0132 145.221 19.391C144.751 19.1202 144.339 18.7594 144.009 18.3292C143.678 17.899 143.436 17.4078 143.296 16.8839C143.155 16.3599 143.12 15.8134 143.191 15.2757C143.262 14.7379 143.439 14.2195 143.71 13.7501ZM149.346 31.7608C148.399 32.3078 147.273 32.4561 146.216 32.1729C145.159 31.8897 144.258 31.1984 143.711 30.2509C143.164 29.3034 143.016 28.1775 143.299 27.1207C143.582 26.064 144.274 25.163 145.221 24.616C146.299 23.9921 148.42 23.5624 151.264 23.3802C151.564 24.8354 152.328 26.1542 153.44 27.1391C151.859 29.5144 150.424 31.1369 149.346 31.7608ZM158 38.5001C156.906 38.5001 155.857 38.0655 155.083 37.2919C154.31 36.5183 153.875 35.4691 153.875 34.3751C153.875 33.1307 154.563 31.0768 155.828 28.521C157.237 28.9932 158.763 28.9932 160.173 28.521C161.438 31.0768 162.125 33.1307 162.125 34.3751C162.125 35.4691 161.69 36.5183 160.917 37.2919C160.143 38.0655 159.094 38.5001 158 38.5001ZM172.29 30.2501C172.019 30.7194 171.658 31.1308 171.229 31.4607C170.799 31.7906 170.308 32.0327 169.785 32.173C169.261 32.3133 168.716 32.3491 168.178 32.2784C167.641 32.2077 167.123 32.0318 166.654 31.7608C165.576 31.1369 164.141 29.5144 162.56 27.1391C163.673 26.1528 164.437 24.8321 164.736 23.3751C167.58 23.5572 169.701 23.9869 170.779 24.6091C171.249 24.8799 171.661 25.2407 171.991 25.6709C172.322 26.1011 172.564 26.5923 172.704 27.1162C172.845 27.6402 172.88 28.1867 172.809 28.7244C172.738 29.2622 172.561 29.7806 172.29 30.2501Z" fill="#2D4595"/>
</svg>
